<mxfile host="app.diagrams.net" agent="Mozilla/5.0 (Windows NT 10.0; Win64; x64) AppleWebKit/537.36 (KHTML, like Gecko) Chrome/135.0.0.0 Safari/537.36" version="26.2.13">
  <diagram name="Page-1" id="GBGmVqDWgZDGhen0g_vq">
    <mxGraphModel dx="1428" dy="811" grid="1" gridSize="10" guides="1" tooltips="1" connect="1" arrows="1" fold="1" page="1" pageScale="1" pageWidth="1600" pageHeight="900" math="0" shadow="0">
      <root>
        <mxCell id="0" />
        <mxCell id="1" parent="0" />
        <mxCell id="OVgkkTsfn2CKIyNb1T31-6" value="WeatherState" style="swimlane;fontStyle=0;childLayout=stackLayout;horizontal=1;startSize=26;fillColor=none;horizontalStack=0;resizeParent=1;resizeParentMax=0;resizeLast=0;collapsible=1;marginBottom=0;whiteSpace=wrap;html=1;" vertex="1" parent="1">
          <mxGeometry x="390" y="360" width="140" height="104" as="geometry" />
        </mxCell>
        <mxCell id="OVgkkTsfn2CKIyNb1T31-7" value="+ Location: string" style="text;strokeColor=none;fillColor=none;align=left;verticalAlign=top;spacingLeft=4;spacingRight=4;overflow=hidden;rotatable=0;points=[[0,0.5],[1,0.5]];portConstraint=eastwest;whiteSpace=wrap;html=1;" vertex="1" parent="OVgkkTsfn2CKIyNb1T31-6">
          <mxGeometry y="26" width="140" height="26" as="geometry" />
        </mxCell>
        <mxCell id="OVgkkTsfn2CKIyNb1T31-8" value="+Temperature: double" style="text;strokeColor=none;fillColor=none;align=left;verticalAlign=top;spacingLeft=4;spacingRight=4;overflow=hidden;rotatable=0;points=[[0,0.5],[1,0.5]];portConstraint=eastwest;whiteSpace=wrap;html=1;" vertex="1" parent="OVgkkTsfn2CKIyNb1T31-6">
          <mxGeometry y="52" width="140" height="26" as="geometry" />
        </mxCell>
        <mxCell id="OVgkkTsfn2CKIyNb1T31-9" value="+ Humidity: double" style="text;strokeColor=none;fillColor=none;align=left;verticalAlign=top;spacingLeft=4;spacingRight=4;overflow=hidden;rotatable=0;points=[[0,0.5],[1,0.5]];portConstraint=eastwest;whiteSpace=wrap;html=1;" vertex="1" parent="OVgkkTsfn2CKIyNb1T31-6">
          <mxGeometry y="78" width="140" height="26" as="geometry" />
        </mxCell>
        <mxCell id="OVgkkTsfn2CKIyNb1T31-10" value="" style="endArrow=open;html=1;endSize=12;startArrow=diamondThin;startSize=14;startFill=1;edgeStyle=orthogonalEdgeStyle;align=left;verticalAlign=bottom;rounded=0;" edge="1" parent="1">
          <mxGeometry x="-1" y="3" relative="1" as="geometry">
            <mxPoint x="530" y="380" as="sourcePoint" />
            <mxPoint x="690" y="380" as="targetPoint" />
          </mxGeometry>
        </mxCell>
        <object label="WeatherPublisher" weatherState="WeatherState" id="OVgkkTsfn2CKIyNb1T31-11">
          <mxCell style="swimlane;fontStyle=1;align=center;verticalAlign=top;childLayout=stackLayout;horizontal=1;startSize=26;horizontalStack=0;resizeParent=1;resizeParentMax=0;resizeLast=0;collapsible=1;marginBottom=0;whiteSpace=wrap;html=1;" vertex="1" parent="1">
            <mxGeometry x="690" y="310" width="260" height="170" as="geometry" />
          </mxCell>
        </object>
        <mxCell id="OVgkkTsfn2CKIyNb1T31-12" value="- bots: BotSubscriber[]&lt;div&gt;&lt;br&gt;&lt;div&gt;- weatherState: WeatherState&lt;/div&gt;&lt;/div&gt;" style="text;strokeColor=none;fillColor=none;align=left;verticalAlign=top;spacingLeft=4;spacingRight=4;overflow=hidden;rotatable=0;points=[[0,0.5],[1,0.5]];portConstraint=eastwest;whiteSpace=wrap;html=1;" vertex="1" parent="OVgkkTsfn2CKIyNb1T31-11">
          <mxGeometry y="26" width="260" height="64" as="geometry" />
        </mxCell>
        <mxCell id="OVgkkTsfn2CKIyNb1T31-13" value="" style="line;strokeWidth=1;fillColor=none;align=left;verticalAlign=middle;spacingTop=-1;spacingLeft=3;spacingRight=3;rotatable=0;labelPosition=right;points=[];portConstraint=eastwest;strokeColor=inherit;" vertex="1" parent="OVgkkTsfn2CKIyNb1T31-11">
          <mxGeometry y="90" width="260" height="8" as="geometry" />
        </mxCell>
        <mxCell id="OVgkkTsfn2CKIyNb1T31-14" value="+ subscribe(s: Bot)&lt;div&gt;+ unsubscribe(s: Bot)&lt;/div&gt;&lt;div&gt;+ notifySubscribers()&lt;/div&gt;&lt;div&gt;+ mainBusinessLogic()&lt;br&gt;&lt;div&gt;&lt;br&gt;&lt;/div&gt;&lt;/div&gt;" style="text;strokeColor=none;fillColor=none;align=left;verticalAlign=top;spacingLeft=4;spacingRight=4;overflow=hidden;rotatable=0;points=[[0,0.5],[1,0.5]];portConstraint=eastwest;whiteSpace=wrap;html=1;" vertex="1" parent="OVgkkTsfn2CKIyNb1T31-11">
          <mxGeometry y="98" width="260" height="72" as="geometry" />
        </mxCell>
        <mxCell id="OVgkkTsfn2CKIyNb1T31-15" value="&lt;p style=&quot;margin:0px;margin-top:4px;text-align:center;&quot;&gt;&lt;i&gt;&amp;lt;&amp;lt;Interface&amp;gt;&amp;gt;&lt;/i&gt;&lt;br&gt;&lt;b&gt;BotSubscriber&lt;/b&gt;&lt;/p&gt;&lt;hr size=&quot;1&quot; style=&quot;border-style:solid;&quot;&gt;&lt;p style=&quot;margin:0px;margin-left:4px;&quot;&gt;+ update(context)&lt;br&gt;&lt;br&gt;&lt;/p&gt;" style="verticalAlign=top;align=left;overflow=fill;html=1;whiteSpace=wrap;" vertex="1" parent="1">
          <mxGeometry x="1110" y="330" width="190" height="70" as="geometry" />
        </mxCell>
      </root>
    </mxGraphModel>
  </diagram>
</mxfile>
